<?xml version="1.0" encoding="UTF-8" standalone="no"?>
<!-- Generator: Adobe Illustrator 16.0.0, SVG Export Plug-In . SVG Version: 6.00 Build 0)  -->

<svg
   xmlns:dc="http://purl.org/dc/elements/1.1/"
   xmlns:cc="http://creativecommons.org/ns#"
   xmlns:rdf="http://www.w3.org/1999/02/22-rdf-syntax-ns#"
   xmlns:svg="http://www.w3.org/2000/svg"
   xmlns="http://www.w3.org/2000/svg"
   xmlns:sodipodi="http://sodipodi.sourceforge.net/DTD/sodipodi-0.dtd"
   xmlns:inkscape="http://www.inkscape.org/namespaces/inkscape"
   version="1.1"
   id="US_UK_Download_on_the"
   x="0px"
   y="0px"
   width="135px"
   height="40px"
   viewBox="0 0 135 40"
   enable-background="new 0 0 135 40"
   xml:space="preserve"
   sodipodi:docname="play-market.svg"
   inkscape:version="0.92.1 r15371"><metadata
     id="metadata69"><rdf:RDF><cc:Work
         rdf:about=""><dc:format>image/svg+xml</dc:format><dc:type
           rdf:resource="http://purl.org/dc/dcmitype/StillImage" /><dc:title></dc:title></cc:Work></rdf:RDF></metadata><defs
     id="defs67"><linearGradient
       id="linear-gradient-4"
       x1="17.299999"
       y1="191.82001"
       x2="27.459999"
       y2="181.66"
       gradientTransform="matrix(0.99283403,0,0,-0.97735227,-9.1781875,188.34538)"
       gradientUnits="userSpaceOnUse"><stop
         offset="0"
         stop-color="#32a071"
         id="stop29" /><stop
         offset="0.07"
         stop-color="#2da771"
         id="stop31" /><stop
         offset="0.48"
         stop-color="#15cf74"
         id="stop33" /><stop
         offset="0.8"
         stop-color="#06e775"
         id="stop35" /><stop
         offset="1"
         stop-color="#00f076"
         id="stop37" /></linearGradient><linearGradient
       id="linear-gradient-3"
       x1="34.830002"
       y1="169.7"
       x2="12.07"
       y2="146.95"
       gradientTransform="matrix(0.99283403,0,0,-0.97735227,-9.1781875,188.34538)"
       gradientUnits="userSpaceOnUse"><stop
         offset="0"
         stop-color="#ff3a44"
         id="stop24" /><stop
         offset="1"
         stop-color="#c31162"
         id="stop26" /></linearGradient><linearGradient
       id="linear-gradient-2"
       x1="43.830002"
       y1="172"
       x2="19.639999"
       y2="172"
       gradientTransform="matrix(0.99283403,0,0,-0.97735227,-9.1781875,188.34538)"
       gradientUnits="userSpaceOnUse"><stop
         offset="0"
         stop-color="#ffe000"
         id="stop15" /><stop
         offset="0.41"
         stop-color="#ffbd00"
         id="stop17" /><stop
         offset="0.78"
         stop-color="orange"
         id="stop19" /><stop
         offset="1"
         stop-color="#ff9c00"
         id="stop21" /></linearGradient><linearGradient
       id="linear-gradient"
       x1="31.799999"
       y1="183.28999"
       x2="15.02"
       y2="166.50999"
       gradientTransform="matrix(0.99283403,0,0,-0.97735227,-9.1781875,188.34538)"
       gradientUnits="userSpaceOnUse"><stop
         offset="0"
         stop-color="#00a0ff"
         id="stop2" /><stop
         offset="0.01"
         stop-color="#00a1ff"
         id="stop4" /><stop
         offset="0.26"
         stop-color="#00beff"
         id="stop6" /><stop
         offset="0.51"
         stop-color="#00d2ff"
         id="stop8" /><stop
         offset="0.76"
         stop-color="#00dfff"
         id="stop10" /><stop
         offset="1"
         stop-color="#00e3ff"
         id="stop12" /></linearGradient></defs><sodipodi:namedview
     pagecolor="#ffffff"
     bordercolor="#666666"
     borderopacity="1"
     objecttolerance="10"
     gridtolerance="10"
     guidetolerance="10"
     inkscape:pageopacity="0"
     inkscape:pageshadow="2"
     inkscape:window-width="1366"
     inkscape:window-height="705"
     id="namedview65"
     showgrid="false"
     inkscape:zoom="2.8148148"
     inkscape:cx="67.5"
     inkscape:cy="20"
     inkscape:window-x="-8"
     inkscape:window-y="-8"
     inkscape:window-maximized="1"
     inkscape:current-layer="US_UK_Download_on_the" /><rect
     width="133.59618"
     height="45.616436"
     style="fill:#ffffff;fill-opacity:0;stroke-width:0.80949885"
     id="rect44"
     x="0.56869459"
     y="-2.5674384" /><rect
     x="0.75014901"
     y="0.69373977"
     width="134.03259"
     height="39.09409"
     rx="4.964169"
     ry="4.8867612"
     id="rect46"
     style="stroke-width:0.98506272" /><path
     d="m 129.81856,1.4756213 a 4.1699021,4.1048794 0 0 1 4.16988,4.1048794 V 34.901068 a 4.1699021,4.1048794 0 0 1 -4.16988,4.104878 H 5.7143228 A 4.1699021,4.1048794 0 0 1 1.5444238,34.901068 V 5.5805007 A 4.1699021,4.1048794 0 0 1 5.7143228,1.4756213 H 129.81856 m 0,-0.78188176 H 5.7143228 A 4.9641694,4.8867612 0 0 0 0.75015572,5.5805007 V 34.901068 A 4.9641694,4.8867612 0 0 0 5.7143228,39.787829 H 129.81856 a 4.9641694,4.8867612 0 0 0 4.96416,-4.886761 V 5.5805007 a 4.9641694,4.8867612 0 0 0 -4.96416,-4.88676116 z"
     style="fill:#a6a6a6;stroke-width:0.98506272"
     id="path48"
     inkscape:connector-curvature="0" /><path
     d="m 47.830334,10.701826 a 2.6905795,2.6486245 0 0 1 -0.744625,1.954705 2.8891464,2.844095 0 0 1 -2.184234,0.869844 3.1274266,3.0786595 0 0 1 -2.194164,-5.2483817 2.9785016,2.9320565 0 0 1 2.194164,-0.8796176 3.077785,3.0297918 0 0 1 1.221186,0.2443386 2.4522996,2.41406 0 0 1 0.933263,0.6548254 l -0.526201,0.5179968 a 1.9856677,1.9547044 0 0 0 -1.628248,-0.6939196 2.3033745,2.2674573 0 0 0 -2.313303,2.3456451 2.3430878,2.3065513 0 0 0 3.971336,1.690818 1.876456,1.8471957 0 0 0 0.496416,-1.192369 h -2.154449 v -0.703693 h 2.889146 a 2.5217982,2.4824747 0 0 1 0.0397,0.439808 z"
     style="fill:#ffffff;stroke:#ffffff;stroke-width:0.19701251px;stroke-miterlimit:10"
     id="path50"
     inkscape:connector-curvature="0" /><path
     d="m 52.377509,8.2584458 h -2.680644 v 1.8569692 h 2.442371 v 0.703694 h -2.442371 v 1.856969 h 2.680644 v 0.723241 H 48.902596 V 7.5352055 h 3.474913 z"
     style="fill:#ffffff;stroke:#ffffff;stroke-width:0.19701251px;stroke-miterlimit:10"
     id="path52"
     inkscape:connector-curvature="0" /><path
     d="M 55.634009,13.399319 H 54.869528 V 8.2584458 H 53.201567 V 7.5352055 h 4.140119 v 0.7232403 h -1.707677 z"
     style="fill:#ffffff;stroke:#ffffff;stroke-width:0.19701251px;stroke-miterlimit:10"
     id="path54"
     inkscape:connector-curvature="0" /><path
     d="M 60.260616,13.399319 V 7.5352055 h 0.764481 v 5.8641135 z"
     style="fill:#ffffff;stroke:#ffffff;stroke-width:0.19701251px;stroke-miterlimit:10"
     id="path56"
     inkscape:connector-curvature="0" /><path
     d="m 64.420587,13.399319 h -0.76448 V 8.2584458 H 61.988144 V 7.5352055 h 4.090475 v 0.7232403 h -1.658032 z"
     style="fill:#ffffff;stroke:#ffffff;stroke-width:0.19701251px;stroke-miterlimit:10"
     id="path58"
     inkscape:connector-curvature="0" /><path
     d="m 73.832652,12.636984 a 3.0976417,3.0493389 0 0 1 -4.368464,0 3.2167815,3.1666212 0 0 1 0,-4.3492175 3.077785,3.0297918 0 0 1 4.368464,0 3.2068532,3.1568477 0 0 1 0,4.3492175 z m -3.80255,-0.488676 a 2.293446,2.2576836 0 0 0 3.236638,0 2.5416547,2.5020218 0 0 0 0,-3.3620915 2.293446,2.2576836 0 0 0 -3.236638,0 2.5416547,2.5020218 0 0 0 0,3.3620915 z"
     style="fill:#ffffff;stroke:#ffffff;stroke-width:0.19701251px;stroke-miterlimit:10"
     id="path60"
     inkscape:connector-curvature="0" /><path
     d="M 75.788536,13.399319 V 7.5352055 h 0.933259 l 2.899083,4.5642345 v 0 -1.133729 -3.4305055 h 0.764478 V 13.399319 H 79.591088 L 76.562946,8.6200663 v 0 1.1337288 3.6455239 z"
     style="fill:#ffffff;stroke:#ffffff;stroke-width:0.19701251px;stroke-miterlimit:10"
     id="path62"
     inkscape:connector-curvature="0" /><path
     d="m 68.401847,21.951149 a 4.2195438,4.1537469 0 1 0 4.239406,4.153748 4.1599738,4.0951058 0 0 0 -4.239406,-4.153748 z m 0,6.675317 a 2.5615113,2.5215688 0 1 1 2.382806,-2.521569 2.4423712,2.4042864 0 0 1 -2.382806,2.521569 z M 59.15857,21.951149 a 4.2195438,4.1537469 0 1 0 4.229474,4.153748 4.1599738,4.0951058 0 0 0 -4.239404,-4.153748 z m 0,6.675317 a 2.5615113,2.5215688 0 1 1 2.372874,-2.521569 2.4423712,2.4042864 0 0 1 -2.382804,2.521569 z M 48.148042,23.231483 v 1.759234 h 4.289044 a 3.7429835,3.684618 0 0 1 -0.992836,2.21859 4.3883256,4.3198969 0 0 1 -3.306137,1.290103 4.7656031,4.6912911 0 0 1 0,-9.382582 4.5670356,4.4958204 0 0 1 3.246563,1.260783 l 1.260905,-1.241236 a 6.2449249,6.1475456 0 0 0 -4.497539,-1.827648 6.5626318,6.4602981 0 1 0 0,12.910824 5.9570031,5.8641133 0 0 0 4.576967,-1.808103 5.9570031,5.8641133 0 0 0 1.548818,-4.124427 5.8279346,5.7370576 0 0 0 -0.09928,-1.104408 z m 44.985295,1.36829 a 3.9713355,3.909409 0 0 0 -3.613917,-2.648624 3.9713355,3.909409 0 0 0 -3.97133,4.153748 4.1301888,4.0657852 0 0 0 4.189757,4.153747 4.1996871,4.1341999 0 0 0 3.514629,-1.837421 L 91.81287,27.443871 a 2.4125863,2.3749658 0 0 1 -2.075023,1.153275 2.1445213,2.1110808 0 0 1 -2.045235,-1.260785 l 5.649221,-2.296776 z m -5.758435,1.387842 a 2.3133027,2.2772307 0 0 1 2.204087,-2.423834 1.6381757,1.6126312 0 0 1 1.568678,0.879618 z m -4.586891,4.026692 h 1.8566 V 17.797402 h -1.8566 z m -3.038073,-7.134672 h -0.06946 a 2.9785016,2.9320565 0 0 0 -2.223943,-0.977352 4.2294722,4.1635205 0 0 0 0,8.317268 2.8792182,2.8343214 0 0 0 2.223943,-0.977353 h 0.05955 v 0.596185 c 0,1.593083 -0.863763,2.443381 -2.253734,2.443381 a 2.3331595,2.2967777 0 0 1 -2.12466,-1.475802 l -1.618314,0.6646 a 4.020977,3.9582765 0 0 0 3.742977,2.453155 c 2.174307,0 3.971343,-1.260786 3.971343,-4.329671 v -7.398558 h -1.707681 z m -2.124661,5.746831 a 2.5714397,2.5313422 0 0 1 0,-5.043137 2.3828013,2.3456454 0 0 1 2.253733,2.521568 2.3629445,2.3260983 0 0 1 -2.263662,2.521569 z M 101.83056,17.797402 h -4.437969 v 12.216905 h 1.856604 v -4.632651 h 2.591305 a 3.8621236,3.8019002 0 1 0 0,-7.584254 z m 0,5.864114 h -2.591293 v -4.16352 h 2.630993 a 2.1296287,2.0964207 0 1 1 0,4.19284 z m 11.44737,-1.759233 a 3.4749186,3.4207329 0 0 0 -3.30612,1.866741 l 1.64809,0.674375 a 1.757316,1.7299134 0 0 1 1.68784,-0.899165 1.7871008,1.759234 0 0 1 1.98565,1.573537 v 0.127057 a 4.1004038,4.0364646 0 0 0 -1.93603,-0.469132 c -1.77719,0 -3.57419,0.977355 -3.57419,2.746362 a 2.8692897,2.8245479 0 0 0 3.07778,2.687718 2.6111531,2.5704365 0 0 0 2.3828,-1.172822 h 0.0595 v 0.977353 h 1.78711 v -4.701065 c 0,-2.140401 -1.64811,-3.381638 -3.76285,-3.381638 z m -0.22836,6.694863 c -0.6056,0 -1.44952,-0.302979 -1.44952,-1.035993 0,-0.977353 1.0524,-1.29988 1.98567,-1.29988 a 3.2962084,3.2448094 0 0 1 1.68781,0.410489 2.2438044,2.2088161 0 0 1 -2.17431,1.954704 z m 10.55384,-6.401658 -2.12467,5.29725 h -0.0595 l -2.20409,-5.29725 h -1.98566 l 3.30611,7.408332 -1.88637,4.114651 h 1.93604 l 5.0833,-11.522983 z m -16.68953,7.818819 h 1.8566 V 17.797402 h -1.8566 z"
     style="fill:#ffffff;stroke-width:0.98506272"
     id="path64"
     inkscape:connector-curvature="0" /><path
     d="m 11.115338,8.0629754 a 1.9856677,1.9547044 0 0 0 -0.4567,1.3682934 V 31.050301 a 1.9856677,1.9547044 0 0 0 0.4567,1.368294 l 0.06947,0.06842 12.301211,-12.099622 V 20.103954 L 11.184837,7.9945607 Z"
     style="fill:url(#linear-gradient);stroke-width:0.98506272"
     id="path66"
     inkscape:connector-curvature="0" /><path
     d="m 27.556668,24.423851 -4.070619,-4.036465 v -0.283432 l 4.070619,-4.04624 0.08936,0.04886 4.874814,2.726814 c 1.389969,0.772107 1.389969,2.042666 0,2.824547 l -4.854958,2.71704 z"
     style="fill:url(#linear-gradient-2);stroke-width:0.98506272"
     id="path68"
     inkscape:connector-curvature="0" /><path
     d="M 27.675808,24.36521 23.486049,20.240783 11.115338,32.418595 a 1.6183194,1.5930841 0 0 0 2.065096,0.05864 l 14.505302,-8.112023"
     style="fill:url(#linear-gradient-3);stroke-width:0.98506272"
     id="path70"
     inkscape:connector-curvature="0" /><path
     d="M 27.675808,16.116358 13.170505,8.0043347 A 1.6183194,1.5930841 0 0 0 11.10541,8.0629741 L 23.486049,20.240783 Z"
     style="fill:url(#linear-gradient-4);stroke-width:0.98506272"
     id="path72"
     inkscape:connector-curvature="0" /><path
     d="m 27.556668,24.277248 -14.386163,8.063157 a 1.6580325,1.6321782 0 0 1 -1.985668,0 v 0 l -0.06946,0.06842 v 0 l 0.06946,0.0684 v 0 a 1.6481042,1.6224047 0 0 0 1.985668,0 l 14.505303,-8.112017 z"
     style="opacity:0.2;isolation:isolate;stroke-width:0.98506272"
     id="path74"
     inkscape:connector-curvature="0" /><path
     d="m 11.115338,32.281764 a 1.9856677,1.9547044 0 0 1 -0.4567,-1.368293 v 0.146604 a 1.9856677,1.9547044 0 0 0 0.4567,1.368292 l 0.06947,-0.06842 z"
     style="opacity:0.12000002;isolation:isolate;stroke-width:0.98506272"
     id="path76"
     inkscape:connector-curvature="0" /><path
     d="m 32.520836,21.511342 -4.964168,2.765906 0.08936,0.08797 4.874814,-2.71704 a 1.7374591,1.7103664 0 0 0 0.992834,-1.407387 v 0 a 1.846671,1.8178751 0 0 1 -0.992834,1.270558 z"
     style="opacity:0.12000002;isolation:isolate;stroke-width:0.98506272"
     id="path78"
     inkscape:connector-curvature="0" /><path
     d="M 13.170505,8.1411635 32.520836,18.970226 a 1.846671,1.8178751 0 0 1 0.992834,1.270557 v 0 A 1.7374591,1.7103664 0 0 0 32.520836,18.833396 L 13.170505,8.0043347 C 11.780537,7.2322264 10.64871,7.8772785 10.64871,9.441042 v 0.1466029 c 0.02982,-1.5735367 1.141756,-2.2185898 2.521795,-1.4464814 z"
     style="opacity:0.25;isolation:isolate;fill:#ffffff;stroke-width:0.98506272"
     id="path80"
     inkscape:connector-curvature="0" /></svg>